<svg version="1.1" id="_x32_" xmlns="http://www.w3.org/2000/svg" x="0" y="0" viewBox="0 0 512 512" style="width:128px;height:128px;opacity:1" xml:space="preserve"><style>.st0{fill:#4b4b4b}</style><path class="st0" d="M324.288 389.972c-12.581 0-22.774 10.193-22.774 22.757 0 12.564 10.193 22.758 22.774 22.758 12.564 0 22.757-10.193 22.757-22.758 0-12.564-10.193-22.757-22.757-22.757zM400.592 389.972c-12.58 0-22.773 10.193-22.773 22.757 0 12.564 10.194 22.758 22.773 22.758 12.564 0 22.758-10.193 22.758-22.758 0-12.564-10.194-22.757-22.758-22.757z" style="fill:#000"/><path class="st0" d="m475.735 323.135-82.965-68.11a86.122 86.122 0 0 0-54.595-19.524h-26.644l-23.128 25.709A43.688 43.688 0 0 1 256 275.629a43.688 43.688 0 0 1-32.402-14.419l-23.128-25.709h-26.66a86.116 86.116 0 0 0-54.579 19.524l-82.964 68.11C18.491 335.989 6.879 356.852 6.879 380.48v60.708c.016 39.12 31.693 70.804 70.804 70.812H434.3c39.112-.008 70.82-31.693 70.82-70.812V380.48c.001-23.628-11.611-44.491-29.385-57.345zm-11.081 118.053c0 8.444-3.371 15.903-8.886 21.459-5.548 5.516-13.016 8.879-21.468 8.887H77.683c-8.435-.008-15.903-3.371-21.451-8.887-5.532-5.556-8.886-13.015-8.886-21.459V380.48c0-8.443 3.354-15.91 8.886-21.45 5.548-5.524 13.016-8.887 21.451-8.895H434.3c8.452.008 15.919 3.371 21.468 8.895 5.516 5.54 8.886 13.008 8.886 21.45v60.708z" style="fill:#000"/><path class="st0" d="M242.017 244.637A18.83 18.83 0 0 0 256 250.855c5.339 0 10.42-2.258 13.984-6.218l71.53-79.489c4.984-5.516 6.226-13.451 3.21-20.241a18.807 18.807 0 0 0-17.177-11.153h-33.612V18.814C293.934 8.428 285.499 0 275.112 0h-38.224c-10.387 0-18.806 8.428-18.806 18.814v114.94H184.47a18.845 18.845 0 0 0-17.192 11.153 18.832 18.832 0 0 0 3.21 20.241l71.529 79.489z" style="fill:#000"/></svg>