<svg version="1.1" id="_x32_" xmlns="http://www.w3.org/2000/svg" x="0" y="0" width="512" height="512" style="width:128px;height:128px;opacity:1" xml:space="preserve"><style>.st0{fill:#4b4b4b}</style><path class="st0" d="M91.578 252.719c-4.156 0-7.891 1.672-10.641 4.406-2.734 2.766-4.422 6.484-4.422 10.656.016 8.25 6.75 14.953 15.063 14.969a14.943 14.943 0 0 0 14.984-14.969c.001-8.328-6.718-15.062-14.984-15.062z" style="fill:#000"/><path class="st0" d="M507.594 107.563c-1.719-2.156-4.063-3.953-6.703-5.078-2.656-1.141-5.547-1.625-8.516-1.609-4.984 0-10.281 1.281-16.406 3.688h.016c-29.453 11.625-55.938 32.156-77.375 52.469-21.422 20.344-37.766 40.563-46.422 51.75l-.031.047c-2.203 2.891-4.016 4.641-5.172 5.453-1.203.781-1.469.719-1.672.75-.188 0-.625-.047-1.625-.531-.859-.438-2.109-1.281-3.563-2.422-3.875-4.516-26.469-29.953-62.516-49.406-2.266-7.453-3.422-15.922-3.422-24.953-.016-17.094 3.875-35.844 9.969-51.938v.016c1.609-4.281 2.563-8.031 2.594-11.859 0-2.141-.344-4.375-1.266-6.5-1.344-3.25-4.203-5.859-7.078-7.078-2.906-1.266-5.75-1.594-8.563-1.609-4.75.031-9.688 1-15.125 2.375-25.031 6.391-49.359 18.688-69.766 34.609-19.328 15.109-35.109 33.516-44.391 53.641-1.734.594-3.453 1.141-5.203 1.797-29.874 11.2-57.092 31.825-77.124 49.622-13.5 12.047-23.563 22.672-28.797 28.453C13.078 243.094 0 257.469 0 257.469l18.313 30.078-7.844 13.063 16.328 16.328c11.297 11.297 56.266 44.391 63.094 49.813 5.172 2.656 24.859 13.469 33.984 16.781l.203.063c3.688 1.234 7.594 2.25 11.516 3.234 1.563 2.469 3.672 6.016 5.953 9.984 4.703 8.203 10.266 18.406 14.641 26.531 4.391 8.141 7.578 14.188 7.578 14.188l.094.172c4.281 7.641 11.859 12.875 20.609 14.734.031.016.047 0 .078.016l.016.016v-.016c2.406.516 4.844.797 7.25.797 6.391 0 12.688-1.781 18.063-5.25l-.031.016 11.141-7.141.047-.031c8.031-5.188 13.219-13.844 13.219-23.344l-.016-.859v-.047c-.313-9.813-6.109-18.609-14.828-23.438l.031.031-6.766-3.844c13.328-1.984 25.297-5.156 36.031-9.25 9.563 6.438 21.953 13.438 34.375 19.25 6.953 3.25 13.859 6.078 20.203 8.156 6.406 2.078 12.125 3.469 17.531 3.5 3.156-.031 6.469-.406 9.813-2.625a11.968 11.968 0 0 0 4.063-4.672c.953-1.922 1.313-3.984 1.313-5.859-.016-2.469-.563-4.734-1.375-7.016-5.438-15.078-15.063-36.078-22.875-52.516 8.594-8.219 15.828-15.875 22.141-21.344.688-.609 2.297-1.531 4.359-2.141 2.063-.641 4.547-1.047 6.859-1.094l.156-.016 1.266-.031c1.734 0 3.344.188 4.531.469 1.219.25 1.969.656 1.969.703v-.016c.531.375 2.219 1.656 4.531 3.438 8.172 6.219 25 19.094 41.813 30.938 8.406 5.906 16.813 11.578 24.25 16.078 3.719 2.25 7.188 4.203 10.375 5.797 3.219 1.578 6.047 2.797 9 3.516 2.875.688 5.594 1.047 8.156 1.047 3.188 0 6.188-.563 8.875-1.719 4.063-1.688 7.156-4.828 8.859-8.156 1.75-3.344 2.359-6.781 2.359-9.969 0-2.656-.422-5.141-1.188-7.469-.719-2.141-2.594-8.625-4.891-16.875a2345.24 2345.24 0 0 1-11.656-43.688c-1.859-7.25-3.516-13.938-4.734-19.172a309.012 309.012 0 0 1-1.453-6.641 46.283 46.283 0 0 1-.516-2.844c.156-.75.875-3.031 2.094-5.875 4.594-11 15.266-31.156 26.094-50.813 10.844-19.734 21.906-39.125 27.656-49.531 2.656-4.844 4.953-10.031 6.609-15.266S512 127.141 512 122c-.016-4.906-.969-10.047-4.406-14.437zM60.844 267.781c0-16.984 13.766-30.75 30.734-30.75 17 0 30.641 13.813 30.672 30.75a30.618 30.618 0 0 1-8.984 21.688 30.611 30.611 0 0 1-21.688 8.969c-16.922 0-30.734-13.672-30.734-30.657zm288.594 30.375c-.953-.063-1.922-.156-2.906-.156l-1.844.047c-.016 0-.031.016-.047.016h-.109c-3.672.125-7.375.688-10.906 1.781-3.578 1.109-7.031 2.719-10.047 5.313-8.328 7.281-16.656 16.406-26.672 25.641a7.847 7.847 0 0 0-1.734 9.141c7.875 16.438 18.688 39.797 24.359 55.281-2.609-.188-6.672-1.063-11.375-2.625-16.625-5.391-40.734-18.219-53.844-27.609a7.853 7.853 0 0 0-7.547-.859c-16.203 6.688-35.641 11.266-59.938 11.875a7.837 7.837 0 0 0-7.406 5.953 7.826 7.826 0 0 0 3.734 8.719l28.563 16.156.031.016c4.438 2.531 6.656 6.313 6.813 10.281v-.031.406c0 3.688-1.984 7.5-6.094 10.188l.047-.016-11.141 7.141-.031.016c-2.656 1.734-6.063 2.734-9.531 2.734-1.313 0-2.656-.156-3.953-.438l-.094-.016c-4.703-.984-8.359-3.719-10.203-7.031-.438-.828-5.906-11.188-12.297-22.922-3.328-6.094-6.891-12.531-10.109-18.141-3.25-5.641-6.063-10.344-8.219-13.438a7.878 7.878 0 0 0-4.672-3.141 140.87 140.87 0 0 1-13.094-3.688c-7.656-2.766-14.688-6.156-21.422-9.766 32-7.641 77.234-41.641 66.094-119.813-10.5-41.797 25.859-37.969 36.609-22.219 36.594 53.578-25.156 74.891 5.219 98.031 27.453 20.922 50.891-26.672 62.75-35.297 43.141-31.359 49.938-9.438 61.453-1.328 10.859 7.642 15.219 8.955 9.563 19.798z" style="fill:#000"/><path class="st0" d="M90.563 367.406c-.016 0-.016 0-.031-.016l.031.016c.516.313.188.031-.672-.656-1.735-.906-1.844-.891.672.656z" style="fill:#000"/></svg>