<svg xmlns="http://www.w3.org/2000/svg" width="512" height="512" style="width:128px;height:128px;opacity:1" xml:space="preserve"><path d="M450.891 253.828c-7.047.016-13.531 2-19.234 4.672-8.593 4.047-15.671 9.719-20.796 14.375-4.188 3.828-6.922 6.891-7.922 8.031-1.281 1.219-2.359 1.984-2.984 2.313l-.484.203-.25-.188-1.359-1.469-.172-.203-.016-.031c-.094-.188-3.516-4.594-3.563-15.438v-88.891c0-32.766-26.547-59.328-59.328-59.344h-88.891c-6.219 0-10.313-1.172-12.734-2.141-1.203-.5-2-.938-2.406-1.188l-.266-.188-.047-.031-.203-.172c-1.016-.781-1.484-1.359-1.656-1.609.094-.359.75-1.656 2.516-3.484 1.719-1.516 7.219-6.453 12.906-13.672 3.359-4.25 6.797-9.313 9.484-15.031s4.672-12.188 4.688-19.25C258.157 27.344 230.813 0 197.063 0s-61.109 27.344-61.109 61.094c0 7.063 2 13.531 4.672 19.25 4.063 8.594 9.719 15.656 14.391 20.781 3.859 4.234 6.922 6.969 8.047 7.953 1.203 1.266 1.953 2.328 2.281 2.953l.203.5c-.156.219-.563.781-1.656 1.609l-.219.172-.031.031c-.406.25-4.859 3.484-15.422 3.516H59.329C26.547 117.875 0 144.438 0 177.203v88.891c-.047 17.219 6.75 26.109 7.891 27.359l.031-.016c1.797 2.25 3.844 4.281 6.406 5.844 2.688 1.656 6.016 2.688 9.328 2.656 3.344 0 6.469-.938 9.188-2.375 2.734-1.438 5.125-3.313 7.422-5.531l.359-.359.297-.359h.016c.344-.422 5.25-6.094 12.078-11.359 3.422-2.625 7.313-5.156 11.172-6.922 3.875-1.781 7.688-2.766 11.031-2.75 11.797 0 22.422 4.75 30.172 12.5 7.734 7.75 12.484 18.344 12.484 30.156 0 11.797-4.766 22.406-12.484 30.156-7.75 7.734-18.375 12.5-30.172 12.5-3.453 0-7.391-1.047-11.406-2.938-6-2.797-11.938-7.406-16.188-11.297a85.292 85.292 0 0 1-5.016-4.953l-1.313-1.438-.313-.359-.063-.063-.297-.359-.359-.344c-2.297-2.219-4.703-4.125-7.438-5.531-2.703-1.438-5.844-2.391-9.172-2.375-3.313-.031-6.641 1-9.313 2.656-2.578 1.547-4.625 3.594-6.438 5.844l-.016-.016c-.063.078-.203.25-.297.359-.016.016-.016.031-.031.031-1.668 2.048-7.605 10.798-7.559 26.97v88.875C0 485.438 26.547 512 59.329 512h88.891c16.141.047 24.891-5.875 26.938-7.578l.016.016c.047-.047.078-.094.125-.125.078-.063.219-.188.281-.219l-.016-.031c2.25-1.797 4.297-3.844 5.844-6.406 1.656-2.688 2.688-6 2.656-9.313.016-3.344-.953-6.469-2.375-9.188-1.438-2.719-3.313-5.125-5.531-7.422l-.344-.359-.359-.297-.016-.016c-.422-.344-6.078-5.25-11.344-12.094-2.641-3.406-5.172-7.297-6.938-11.172-1.781-3.859-2.766-7.672-2.75-11.016 0-11.813 4.75-22.422 12.484-30.172 7.75-7.734 18.359-12.484 30.172-12.484 11.797 0 22.406 4.75 30.156 12.484 7.734 7.75 12.484 18.359 12.5 30.172 0 3.438-1.047 7.391-2.938 11.406-2.797 6-7.391 11.938-11.297 16.188-1.953 2.125-3.703 3.859-4.953 5.016l-1.438 1.328-.359.297-.063.063-.375.313-.344.344c-2.203 2.297-4.094 4.703-5.531 7.438-1.422 2.703-2.375 5.828-2.375 9.172-.016 3.313 1.016 6.625 2.672 9.313 1.547 2.563 3.578 4.609 5.844 6.406l-.016.031c.047.031.203.156.266.219a.989.989 0 0 1 .141.125v-.016c2.063 1.703 10.813 7.625 26.969 7.578h88.859c32.781 0 59.328-26.563 59.328-59.344v-88.875c.016-6.234 1.172-10.313 2.156-12.734.484-1.203.938-2 1.203-2.422l.188-.281.031-.016.172-.234c.766-1.016 1.328-1.469 1.594-1.625l.766.328c.641.375 1.594 1.078 2.688 2.125 1.453 1.672 6.438 7.219 13.719 12.969 4.25 3.359 9.297 6.766 15.015 9.484 5.719 2.672 12.203 4.656 19.25 4.672 33.75-.016 61.094-27.359 61.109-61.109-.016-33.751-27.359-61.095-61.109-61.111z" style="fill:#000"/></svg>